<?xml version="1.0" encoding="utf-8"?>
<!-- Generator: Adobe Illustrator 21.0.0, SVG Export Plug-In . SVG Version: 6.00 Build 0)  -->
<svg version="1.1" id="Capa_2" xmlns="http://www.w3.org/2000/svg" xmlns:xlink="http://www.w3.org/1999/xlink" x="0px" y="0px"
	 viewBox="0 0 669.1 244.6" style="enable-background:new 0 0 669.1 244.6;" xml:space="preserve">
<style type="text/css">
	.st0{fill:#28348A;}
	.st1{fill:#009A3E;}
</style>
<g>
	<path class="st0" d="M158.8,110.1c0,7.6-5,11.5-15,11.5h-37.6c-10,0-15-3.9-15-11.5V40.7c0-7.8,5-11.7,15-11.7h37.6
		c10,0,15,3.9,15,11.7v27.4h-30.1V52.2h-7.3v46.4h7.3V76.7h30.1V110.1"/>
	<path class="st0" d="M234.2,110.1c0,7.6-5,11.5-15,11.5h-37.6c-10,0-15-3.9-15-11.5V40.7c0-7.8,5-11.7,15-11.7h37.6
		c10,0,15,3.9,15,11.7V110.1 M204,52.2h-7.3v46.4h7.3V52.2z"/>
	<path class="st1" d="M294.7,150.5c-3.4,0-6.7-1-9.9-3.1c-3.5-2.4-5.3-5.2-5.3-8.4v-17.3h-0.2V52.2H272v59.6h-30.1V29H272v5.8
		c5-3.9,12.5-5.8,22.5-5.8c10,0,15,3.9,15,11.7v86.8h37.8v23H294.7"/>
	<polygon class="st0" points="347.3,63.7 368.4,63.7 368.4,86.9 347.3,86.9 347.3,98.6 368.4,98.6 368.4,121.6 317.2,121.6 
		317.2,29 368.4,29 368.4,52.2 347.3,52.2 	"/>
	<polygon class="st0" points="435.5,121.6 390.3,121.6 375.3,29 405.3,29 413,81.1 420.5,29 450.6,29 	"/>
	<path class="st0" d="M468.4,121.6c-10,0-15-3.9-15-11.5V75.2c0-7.5,5-11.4,15-11.5h22.5V52.2h-7.3v5.7h-30.2V40.7
		c0-7.8,5-11.7,15-11.7h37.7c10,0,15,3.9,15,11.7v80.9H468.4 M490.9,86.9h-7.3v11.7h7.3V86.9z"/>
	<polygon class="st0" points="528.8,121.6 528.8,29 558.9,29 558.9,98.6 578.5,98.6 578.5,121.6 	"/>
	<path class="st0" d="M182.2,166.8v15c0,1.8-0.3,3.1-0.8,3.7c-0.5,0.7-1.4,1-2.6,1h-0.4v-1.8c0.7,0,1.2-0.1,1.4-0.4
		c0.2-0.3,0.4-1,0.4-2.3v-15.3H182.2z M111.1,174.3c0-2.2,0.8-4.1,2.3-5.6c1.5-1.5,3.3-2.4,5.3-2.4c2.2,0,4,0.8,5.6,2.3
		c1.5,1.5,2.3,3.4,2.3,5.5c0,2.2-0.8,4.1-2.3,5.7c-1.5,1.6-3.3,2.4-5.4,2.4c-2.2,0-4-0.8-5.5-2.3
		C111.9,178.3,111.1,176.4,111.1,174.3 M176,174.9h-13.5c0.1,1.7,0.7,2.9,1.8,4c1.1,1,2.4,1.5,4,1.5c1.1,0,2.1-0.3,3-0.9
		c0.9-0.6,1.6-1.4,2.1-2.4h2.2c-0.7,1.7-1.6,2.9-2.9,3.8c-1.3,0.9-2.7,1.3-4.4,1.3c-2.2,0-4-0.8-5.5-2.3c-1.5-1.5-2.2-3.4-2.2-5.6
		c0-2.3,0.7-4.2,2.2-5.6c1.5-1.5,3.4-2.2,5.7-2.2c2.2,0,4.1,0.8,5.5,2.3c1.4,1.6,2.1,3.6,2.1,6.1V174.9z M186.5,174.3
		c0-2.2,0.7-4.1,2.3-5.6c1.5-1.5,3.3-2.4,5.3-2.4c2.2,0,4,0.8,5.5,2.3c1.5,1.5,2.3,3.4,2.3,5.5c0,2.2-0.8,4.1-2.3,5.7
		c-1.5,1.6-3.3,2.4-5.4,2.4c-2.2,0-4-0.8-5.5-2.3C187.3,178.3,186.5,176.4,186.5,174.3 M276.5,171.4c-0.6-1.1-1.3-1.9-2.1-2.4
		c-0.9-0.5-1.9-0.8-3-0.8c-1.6,0-2.9,0.6-3.9,1.7c-1.1,1.2-1.6,2.6-1.6,4.4c0,1.7,0.5,3.1,1.6,4.3c1.1,1.1,2.4,1.7,4,1.7
		c1.1,0,2.2-0.3,3.1-0.9c0.9-0.5,1.6-1.3,2-2.4h2.1c-0.6,1.6-1.5,2.9-2.7,3.8c-1.3,0.9-2.7,1.3-4.4,1.3c-2.2,0-4-0.8-5.5-2.3
		c-1.5-1.5-2.2-3.4-2.2-5.6c0-2.2,0.8-4.1,2.3-5.6c1.5-1.5,3.3-2.3,5.5-2.3c1.6,0,3.1,0.5,4.3,1.3c1.3,0.9,2.2,2.1,2.8,3.7H276.5z
		 M289.7,174.3c0-2.2,0.7-4.1,2.2-5.6c1.5-1.5,3.3-2.4,5.3-2.4c2.2,0,4,0.8,5.6,2.3c1.5,1.5,2.3,3.4,2.3,5.5c0,2.2-0.8,4.1-2.3,5.7
		c-1.5,1.6-3.3,2.4-5.4,2.4c-2.2,0-4-0.8-5.5-2.3C290.4,178.3,289.7,176.4,289.7,174.3 M406,174.9h-13.5c0.1,1.7,0.7,2.9,1.8,4
		c1.1,1,2.4,1.5,4,1.5c1.1,0,2.1-0.3,3-0.9c0.9-0.6,1.6-1.4,2.1-2.4h2.2c-0.7,1.7-1.6,2.9-2.9,3.8c-1.3,0.9-2.7,1.3-4.3,1.3
		c-2.2,0-4-0.8-5.5-2.3c-1.5-1.5-2.2-3.4-2.2-5.6c0-2.3,0.7-4.2,2.2-5.6c1.5-1.5,3.4-2.2,5.7-2.2c2.3,0,4.1,0.8,5.5,2.3
		c1.4,1.6,2.1,3.6,2.1,6.1V174.9z M535.4,171.4c-0.6-1.1-1.3-1.9-2.2-2.4c-0.8-0.5-1.9-0.8-3-0.8c-1.6,0-2.9,0.6-3.9,1.7
		c-1.1,1.2-1.6,2.6-1.6,4.4c0,1.7,0.5,3.1,1.6,4.3c1.1,1.1,2.4,1.7,4,1.7c1.1,0,2.2-0.3,3.1-0.9c0.9-0.5,1.6-1.3,2-2.4h2.1
		c-0.6,1.6-1.5,2.9-2.7,3.8c-1.3,0.9-2.7,1.3-4.4,1.3c-2.2,0-4-0.8-5.5-2.3c-1.5-1.5-2.2-3.4-2.2-5.6c0-2.2,0.8-4.1,2.3-5.6
		c1.5-1.5,3.4-2.3,5.5-2.3c1.6,0,3.1,0.5,4.3,1.3c1.3,0.9,2.2,2.1,2.8,3.7H535.4z M548.6,174.3c0-2.2,0.7-4.1,2.2-5.6
		c1.5-1.5,3.3-2.4,5.4-2.4c2.2,0,4,0.8,5.5,2.3c1.5,1.5,2.3,3.4,2.3,5.5c0,2.2-0.8,4.1-2.3,5.7c-1.5,1.6-3.3,2.4-5.4,2.4
		c-2.2,0-4-0.8-5.5-2.3C549.4,178.3,548.6,176.4,548.6,174.3 M105.1,167.1c-0.9-1.2-1.9-2.2-3-2.7c-1.1-0.6-2.3-0.9-3.7-0.9
		c-2.2,0-4.1,0.8-5.7,2.5c-1.6,1.6-2.4,3.6-2.4,5.8c0,2.4,0.8,4.4,2.4,6.1c1.6,1.6,3.4,2.5,5.7,2.5c1.4,0,2.6-0.3,3.7-0.9
		c1.1-0.5,2.1-1.4,2.9-2.5h2.3c-0.9,1.7-2.1,3-3.6,3.9c-1.5,0.9-3.2,1.4-5.1,1.4c-2.9,0-5.3-1-7.3-3c-2-2-2.9-4.4-2.9-7.4
		c0-1.4,0.2-2.7,0.8-3.9c0.5-1.3,1.3-2.4,2.3-3.4c1-1,2-1.7,3.2-2.1c1.2-0.5,2.4-0.7,3.8-0.7c2,0,3.7,0.5,5.3,1.4
		c1.6,0.9,2.8,2.3,3.8,4.1H105.1z M147.5,177h2v0.1c0,0.9,0.3,1.7,0.8,2.3c0.5,0.6,1.2,0.9,2,0.9c0.8,0,1.4-0.2,1.9-0.7
		c0.5-0.5,0.7-1.1,0.7-1.8c0-0.7-0.2-1.3-0.6-1.7c-0.4-0.4-1.1-0.9-2.1-1.2c-1.7-0.6-2.8-1.2-3.3-1.8c-0.5-0.6-0.7-1.5-0.7-2.5
		c0-1.2,0.4-2.2,1.3-3c0.8-0.8,1.9-1.2,3-1.2c1.3,0,2.3,0.4,3.1,1.1c0.8,0.7,1.1,1.7,1.2,3h-2.1c-0.1-0.7-0.3-1.3-0.7-1.6
		c-0.4-0.4-1-0.6-1.6-0.6c-0.6,0-1.2,0.2-1.6,0.6c-0.4,0.4-0.6,1-0.6,1.6c0,0.5,0.1,0.8,0.2,1.1c0.2,0.3,0.5,0.6,0.9,0.8
		c0.4,0.2,0.9,0.4,1.6,0.7c0.7,0.2,1.2,0.4,1.4,0.5c0.9,0.4,1.6,0.9,2.1,1.6c0.4,0.7,0.7,1.5,0.7,2.5c0,1.3-0.5,2.3-1.3,3.2
		c-0.9,0.8-2,1.3-3.5,1.3c-1.4,0-2.5-0.5-3.4-1.4C148,179.8,147.5,178.6,147.5,177 M257.5,179.4c-0.6,0.9-1.4,1.5-2.4,2
		c-1,0.5-2.1,0.7-3.3,0.7c-2.2,0-4-0.8-5.5-2.2c-1.5-1.5-2.2-3.4-2.2-5.6c0-2.3,0.7-4.1,2.2-5.6c1.5-1.5,3.4-2.2,5.6-2.2
		c1.2,0,2.2,0.2,3.1,0.7c1,0.4,1.8,1.1,2.4,2v-2.4h1.9v15h-1.9V179.4z M339.7,179.4c-0.6,0.9-1.4,1.5-2.4,2c-1,0.5-2.1,0.7-3.3,0.7
		c-2.2,0-4-0.8-5.5-2.2c-1.5-1.5-2.2-3.4-2.2-5.6c0-2.3,0.8-4.1,2.3-5.6c1.5-1.5,3.4-2.2,5.6-2.2c1.2,0,2.2,0.2,3.2,0.7
		c1,0.4,1.8,1.1,2.4,2v-2.4h1.9v15h-1.9V179.4z M384.3,169.2v-3.4v-3.9h1.9v19.8h-1.9v-2.3c-0.7,0.8-1.5,1.5-2.5,1.9
		c-1,0.5-2.1,0.7-3.2,0.7c-2.2,0-4-0.8-5.4-2.3c-1.5-1.5-2.2-3.4-2.2-5.6c0-2.2,0.7-4,2.2-5.6c1.5-1.5,3.3-2.2,5.5-2.2
		c1.2,0,2.2,0.2,3.2,0.7C382.8,167.6,383.6,168.3,384.3,169.2 M472.3,179.4c-0.6,0.9-1.4,1.5-2.4,2c-1,0.5-2.1,0.7-3.3,0.7
		c-2.2,0-4-0.8-5.5-2.2c-1.5-1.5-2.2-3.4-2.2-5.6c0-2.3,0.8-4.1,2.2-5.6c1.5-1.5,3.4-2.2,5.6-2.2c1.2,0,2.2,0.2,3.2,0.7
		c1,0.4,1.7,1.1,2.4,2v-2.4h1.8v15h-1.8V179.4z M486.2,166.8h1.9v7.9c0,2,0.3,3.5,1,4.3c0.6,0.9,1.7,1.3,3.3,1.3
		c0.9,0,1.6-0.2,2.3-0.5c0.7-0.3,1.2-0.8,1.6-1.5c0.2-0.4,0.4-0.9,0.5-1.4c0.1-0.5,0.1-1.5,0.1-2.8v-7.4h1.9v15h-1.9v-1.6
		c-0.6,0.7-1.2,1.2-2,1.5c-0.7,0.3-1.6,0.5-2.6,0.5c-2.2,0-3.7-0.6-4.7-1.8c-0.9-1.2-1.4-3.1-1.4-5.8V166.8z M516.5,179.4
		c-0.6,0.9-1.4,1.5-2.4,2c-1,0.5-2.1,0.7-3.3,0.7c-2.2,0-4-0.8-5.5-2.2c-1.5-1.5-2.2-3.4-2.2-5.6c0-2.3,0.8-4.1,2.2-5.6
		c1.5-1.5,3.3-2.2,5.6-2.2c1.2,0,2.2,0.2,3.2,0.7c1,0.4,1.7,1.1,2.4,2v-2.4h1.8v15h-1.8V179.4z M130.9,166.8h1.9v1.7
		c0.6-0.7,1.3-1.2,2.1-1.5c0.7-0.3,1.6-0.5,2.6-0.5c1.1,0,2.1,0.2,3,0.6c0.9,0.4,1.5,1,2,1.7c0.4,0.5,0.6,1.2,0.7,1.9
		c0.2,0.7,0.2,1.8,0.2,3.2v7.8h-1.9v-8.4c0-1.8-0.3-3-1-3.9c-0.7-0.8-1.8-1.2-3.3-1.2c-0.9,0-1.7,0.2-2.3,0.5
		c-0.7,0.3-1.2,0.8-1.6,1.5c-0.2,0.4-0.4,0.9-0.5,1.4c-0.1,0.5-0.2,1.4-0.2,2.7v7.3h-1.9V166.8z M237.7,179.4l-0.2-17.5h1.9v19.8
		h-2.4l-10.8-17.5l0.2,17.5h-1.9v-19.8h2.3L237.7,179.4z M283.4,166.8h1.9v15h-1.9V166.8z M309.4,166.8h1.9v1.7
		c0.6-0.7,1.3-1.2,2.1-1.5c0.8-0.3,1.7-0.5,2.7-0.5c1.1,0,2.1,0.2,2.9,0.6c0.9,0.4,1.5,1,2.1,1.7c0.4,0.5,0.6,1.2,0.8,1.9
		c0.1,0.7,0.2,1.8,0.2,3.2v7.8H320v-8.4c0-1.8-0.3-3-1-3.9c-0.7-0.8-1.8-1.2-3.2-1.2c-0.9,0-1.7,0.2-2.3,0.5
		c-0.7,0.3-1.2,0.8-1.6,1.5c-0.3,0.4-0.4,0.9-0.5,1.4c-0.1,0.5-0.2,1.4-0.2,2.7v7.3h-1.9V166.8z M346.6,161.9h1.9v19.8h-1.9V161.9z
		 M430.5,170.8h8.3v1.9h-8.3v7.1h8.3v1.9h-10.3v-19.8h10.3v2h-8.3V170.8z M450.1,181.7h-1.7l-5.9-15h2l4.8,12.1l4.8-12.1h2.1
		L450.1,181.7z M479.2,161.9h1.9v19.8h-1.9V161.9z M542.4,166.8h1.9v15h-1.9V166.8z M568.4,166.8h1.9v1.7c0.6-0.7,1.3-1.2,2.1-1.5
		c0.8-0.3,1.6-0.5,2.6-0.5c1.1,0,2.1,0.2,2.9,0.6c0.9,0.4,1.5,1,2.1,1.7c0.3,0.5,0.6,1.2,0.7,1.9c0.2,0.7,0.3,1.8,0.3,3.2v7.8H579
		v-8.4c0-1.8-0.3-3-1-3.9c-0.7-0.8-1.7-1.2-3.2-1.2c-0.8,0-1.6,0.2-2.3,0.5c-0.7,0.3-1.2,0.8-1.6,1.5c-0.2,0.4-0.4,0.9-0.5,1.4
		c0,0.5-0.1,1.4-0.1,2.7v7.3h-1.9V166.8z M257.5,174.2c0-1.6-0.5-3-1.7-4.2c-1.1-1.2-2.5-1.8-3.9-1.8c-1.6,0-3,0.6-4.1,1.8
		c-1.2,1.2-1.7,2.7-1.7,4.4c0,1.7,0.6,3.1,1.7,4.2c1.1,1.1,2.5,1.7,4,1.7c1.5,0,2.9-0.6,4-1.8C257,177.3,257.5,175.9,257.5,174.2
		 M339.7,174.2c0-1.6-0.6-3-1.7-4.2c-1.1-1.2-2.4-1.8-3.9-1.8c-1.6,0-3,0.6-4.1,1.8c-1.2,1.2-1.7,2.7-1.7,4.4c0,1.7,0.5,3.1,1.7,4.2
		c1.1,1.1,2.5,1.7,4.1,1.7c1.5,0,2.9-0.6,4-1.8C339.1,177.3,339.7,175.9,339.7,174.2 M384.4,174.4c0-1.7-0.5-3.2-1.7-4.4
		c-1.1-1.2-2.5-1.8-4-1.8c-1.6,0-2.9,0.6-4.1,1.7c-1.1,1.2-1.7,2.6-1.7,4.2c0,1.7,0.6,3.2,1.7,4.4c1.1,1.2,2.5,1.8,4.1,1.8
		c1.5,0,2.8-0.6,3.9-1.8C383.8,177.4,384.4,176,384.4,174.4 M472.3,174.2c0-1.6-0.6-3-1.7-4.2c-1.1-1.2-2.4-1.8-3.9-1.8
		c-1.6,0-3,0.6-4.1,1.8c-1.1,1.2-1.7,2.7-1.7,4.4c0,1.7,0.6,3.1,1.7,4.2c1.1,1.1,2.5,1.7,4.1,1.7c1.5,0,2.9-0.6,4-1.8
		C471.7,177.3,472.3,175.9,472.3,174.2 M516.5,174.2c0-1.6-0.6-3-1.7-4.2c-1.1-1.2-2.5-1.8-3.9-1.8c-1.6,0-3,0.6-4.1,1.8
		c-1.2,1.2-1.7,2.7-1.7,4.4c0,1.7,0.6,3.1,1.7,4.2c1.1,1.1,2.5,1.7,4.1,1.7c1.5,0,2.8-0.6,4-1.8C516,177.3,516.5,175.9,516.5,174.2
		 M113.1,174.3c0,1.7,0.6,3.1,1.6,4.3c1.1,1.2,2.5,1.8,4.1,1.8c1.6,0,2.9-0.6,4-1.8c1.1-1.2,1.6-2.6,1.6-4.3c0-1.8-0.6-3.2-1.6-4.4
		c-1.1-1.1-2.5-1.7-4.2-1.7c-1.5,0-2.9,0.6-3.9,1.8C113.7,171.1,113.1,172.5,113.1,174.3 M188.5,174.3c0,1.7,0.6,3.1,1.7,4.3
		c1.1,1.2,2.5,1.8,4.1,1.8c1.6,0,3-0.6,4-1.8c1.1-1.2,1.6-2.6,1.6-4.3c0-1.8-0.6-3.2-1.6-4.4c-1.1-1.1-2.5-1.7-4.2-1.7
		c-1.5,0-2.8,0.6-3.9,1.8C189.1,171.1,188.5,172.5,188.5,174.3 M291.7,174.3c0,1.7,0.6,3.1,1.6,4.3c1.1,1.2,2.5,1.8,4.1,1.8
		c1.6,0,3-0.6,4-1.8c1.1-1.2,1.7-2.6,1.7-4.3c0-1.8-0.6-3.2-1.7-4.4c-1.1-1.1-2.5-1.7-4.2-1.7c-1.5,0-2.8,0.6-3.9,1.8
		C292.3,171.1,291.7,172.5,291.7,174.3 M550.6,174.3c0,1.7,0.5,3.1,1.7,4.3c1.1,1.2,2.5,1.8,4.1,1.8c1.6,0,2.9-0.6,4.1-1.8
		c1.1-1.2,1.6-2.6,1.6-4.3c0-1.8-0.6-3.2-1.6-4.4c-1.1-1.1-2.5-1.7-4.2-1.7c-1.5,0-2.8,0.6-3.9,1.8
		C551.2,171.1,550.6,172.5,550.6,174.3 M173.9,173.2c-0.4-1.7-1.1-2.9-2-3.8c-1-0.8-2.2-1.3-3.8-1.3c-1.5,0-2.7,0.5-3.7,1.4
		c-1,0.9-1.6,2.1-1.9,3.6H173.9z M403.9,173.2c-0.4-1.7-1-2.9-2-3.8c-1-0.8-2.2-1.3-3.8-1.3c-1.4,0-2.7,0.5-3.7,1.4
		c-1,0.9-1.6,2.1-1.9,3.6H403.9z M182.2,165h-1.9v-3.1h1.9V165z M285.4,165h-1.9v-3.1h1.9V165z M544.3,165h-1.9v-3.1h1.9V165z
		 M556.1,164.8h-1.2l2.9-4.8h2L556.1,164.8z"/>
	<path class="st0" d="M122.7,208.3h-13.5c0.1,1.6,0.7,3,1.8,4c1.1,1,2.4,1.5,3.9,1.5c1.2,0,2.2-0.3,3-0.9c0.9-0.6,1.6-1.4,2.1-2.5
		h2.2c-0.7,1.7-1.6,2.9-2.9,3.8c-1.3,0.9-2.7,1.3-4.4,1.3c-2.2,0-4-0.8-5.5-2.4c-1.5-1.5-2.2-3.4-2.2-5.6c0-2.3,0.7-4.2,2.2-5.7
		c1.5-1.5,3.4-2.2,5.7-2.2c2.3,0,4.1,0.8,5.5,2.3c1.4,1.5,2.1,3.6,2.1,6V208.3z M101.5,202.6v-3.3v-3.9h1.9v19.8h-1.9v-2.2
		c-0.7,0.9-1.5,1.5-2.5,1.9c-1,0.5-2.1,0.7-3.2,0.7c-2.2,0-4-0.8-5.4-2.3c-1.5-1.5-2.2-3.4-2.2-5.6c0-2.2,0.7-4,2.2-5.6
		c1.4-1.5,3.3-2.2,5.5-2.2c1.2,0,2.2,0.2,3.2,0.7C100.1,201,100.9,201.7,101.5,202.6 M160.9,212.8c-0.6,0.9-1.4,1.5-2.4,2.1
		c-1,0.5-2.1,0.7-3.3,0.7c-2.2,0-4-0.8-5.4-2.2c-1.5-1.5-2.2-3.4-2.2-5.6c0-2.2,0.7-4.1,2.2-5.6c1.5-1.5,3.4-2.2,5.6-2.2
		c1.2,0,2.2,0.2,3.2,0.7c1,0.5,1.7,1.2,2.3,2v-2.4h1.9v15h-1.9V212.8z M141.7,195.4h1.9v19.8h-1.9V195.4z M182.7,195.4h4.2
		c1.2,0,2.2,0,2.9,0.2c0.7,0.1,1.3,0.3,1.8,0.6c0.9,0.5,1.5,1.2,2,2c0.5,0.8,0.7,1.8,0.7,2.8c0,1-0.2,1.9-0.6,2.8
		c-0.4,0.9-1,1.5-1.8,2c-0.5,0.4-1.2,0.6-1.9,0.7c-0.8,0.1-1.7,0.3-2.8,0.3h-2.6v8.3h-2V195.4z M101.6,207.9c0-1.7-0.6-3.2-1.7-4.4
		c-1.1-1.2-2.5-1.8-4-1.8c-1.6,0-2.9,0.6-4,1.7c-1.1,1.1-1.7,2.5-1.7,4.2c0,1.8,0.6,3.2,1.7,4.4c1.1,1.2,2.5,1.8,4.1,1.8
		c1.5,0,2.8-0.6,3.9-1.8C101,210.8,101.6,209.4,101.6,207.9 M160.9,207.6c0-1.6-0.5-3-1.7-4.1c-1.2-1.2-2.5-1.8-3.9-1.8
		c-1.6,0-3,0.6-4.1,1.8c-1.1,1.2-1.7,2.6-1.7,4.4c0,1.7,0.6,3.1,1.7,4.2c1.1,1.1,2.5,1.7,4.1,1.7c1.5,0,2.9-0.6,4-1.8
		C160.4,210.7,160.9,209.3,160.9,207.6 M120.6,206.6c-0.4-1.7-1-2.9-2-3.8c-1-0.8-2.2-1.2-3.8-1.2c-1.4,0-2.7,0.4-3.7,1.4
		c-1,0.9-1.6,2.1-1.8,3.6H120.6z M184.7,197.3v7.5h2.9c1.6,0,2.8-0.3,3.5-0.9c0.7-0.6,1.1-1.5,1.1-2.8c0-1.3-0.4-2.3-1.1-2.9
		c-0.8-0.6-2-0.9-3.7-0.9H184.7z"/>
	<path class="st0" d="M196.4,207.7c0-2.2,0.8-4.1,2.3-5.6c1.5-1.6,3.3-2.4,5.3-2.4c2.2,0,4,0.8,5.5,2.3c1.5,1.5,2.3,3.4,2.3,5.5
		c0,2.2-0.8,4.1-2.2,5.7c-1.5,1.6-3.3,2.4-5.4,2.4c-2.2,0-4-0.8-5.5-2.3C197.1,211.7,196.4,209.9,196.4,207.7 M256.3,204.8
		c-0.6-1.1-1.3-1.9-2.2-2.4c-0.8-0.5-1.8-0.8-3-0.8c-1.6,0-2.9,0.6-3.9,1.8c-1.1,1.2-1.6,2.6-1.6,4.3c0,1.7,0.6,3.1,1.6,4.3
		c1.1,1.1,2.4,1.7,4,1.7c1.2,0,2.2-0.3,3.1-0.9c0.9-0.6,1.6-1.4,2-2.4h2.1c-0.6,1.6-1.5,2.9-2.7,3.8c-1.3,0.9-2.7,1.3-4.4,1.3
		c-2.2,0-4-0.8-5.5-2.3c-1.5-1.5-2.2-3.4-2.2-5.5c0-2.2,0.8-4.1,2.3-5.6c1.5-1.5,3.3-2.3,5.5-2.3c1.6,0,3.1,0.4,4.3,1.3
		c1.3,0.9,2.2,2.2,2.8,3.7H256.3z M330.8,208.3h-13.5c0.1,1.6,0.7,3,1.8,4c1.1,1,2.4,1.5,4,1.5c1.1,0,2.1-0.3,3-0.9
		c0.9-0.6,1.6-1.4,2.1-2.5h2.2c-0.7,1.7-1.6,2.9-2.9,3.8c-1.3,0.9-2.7,1.3-4.3,1.3c-2.2,0-4-0.8-5.5-2.4c-1.5-1.5-2.2-3.4-2.2-5.6
		c0-2.3,0.7-4.2,2.2-5.7c1.4-1.5,3.3-2.2,5.6-2.2c2.2,0,4.1,0.8,5.5,2.3c1.4,1.5,2.1,3.6,2.1,6V208.3z M384.6,208.3h-13.5
		c0.1,1.6,0.7,3,1.8,4c1.1,1,2.4,1.5,4,1.5c1.2,0,2.2-0.3,3-0.9c0.9-0.6,1.6-1.4,2.1-2.5h2.2c-0.7,1.7-1.7,2.9-2.9,3.8
		c-1.3,0.9-2.7,1.3-4.4,1.3c-2.2,0-4-0.8-5.5-2.4c-1.5-1.5-2.3-3.4-2.3-5.6c0-2.3,0.7-4.2,2.2-5.7c1.5-1.5,3.4-2.2,5.7-2.2
		c2.3,0,4.1,0.8,5.5,2.3c1.4,1.5,2.1,3.6,2.1,6V208.3z M435.8,207.7c0-2.2,0.8-4.1,2.2-5.6c1.5-1.6,3.3-2.4,5.4-2.4
		c2.2,0,4,0.8,5.6,2.3c1.5,1.5,2.3,3.4,2.3,5.5c0,2.2-0.7,4.1-2.2,5.7c-1.5,1.6-3.3,2.4-5.5,2.4c-2.2,0-4-0.8-5.5-2.3
		C436.6,211.7,435.8,209.9,435.8,207.7 M467.3,207.7c0-2.2,0.7-4.1,2.2-5.6c1.5-1.6,3.3-2.4,5.4-2.4c2.2,0,4,0.8,5.5,2.3
		c1.5,1.5,2.3,3.4,2.3,5.5c0,2.2-0.8,4.1-2.2,5.7c-1.5,1.6-3.3,2.4-5.4,2.4c-2.2,0-4-0.8-5.5-2.3
		C468.1,211.7,467.3,209.9,467.3,207.7 M515.5,207.7c0-2.2,0.8-4.1,2.3-5.6c1.5-1.6,3.3-2.4,5.3-2.4c2.2,0,4,0.8,5.5,2.3
		c1.5,1.5,2.3,3.4,2.3,5.5c0,2.2-0.8,4.1-2.3,5.7c-1.5,1.6-3.3,2.4-5.4,2.4c-2.2,0-4-0.8-5.5-2.3
		C516.2,211.7,515.5,209.9,515.5,207.7 M546.7,204.8c-0.6-1.1-1.3-1.9-2.2-2.4c-0.8-0.5-1.9-0.8-3-0.8c-1.5,0-2.9,0.6-3.9,1.8
		c-1.1,1.2-1.6,2.6-1.6,4.3c0,1.7,0.5,3.1,1.6,4.3c1.1,1.1,2.4,1.7,4,1.7c1.1,0,2.2-0.3,3.1-0.9c0.9-0.6,1.6-1.4,2-2.4h2.1
		c-0.6,1.6-1.5,2.9-2.7,3.8c-1.3,0.9-2.7,1.3-4.4,1.3c-2.2,0-4-0.8-5.5-2.3c-1.4-1.5-2.2-3.4-2.2-5.5c0-2.2,0.8-4.1,2.3-5.6
		c1.5-1.5,3.4-2.3,5.5-2.3c1.6,0,3.1,0.4,4.3,1.3c1.3,0.9,2.2,2.2,2.8,3.7H546.7z M275.4,212.8c-0.6,0.9-1.4,1.5-2.4,2.1
		c-1.1,0.5-2.1,0.7-3.3,0.7c-2.2,0-4-0.8-5.5-2.2c-1.5-1.5-2.2-3.4-2.2-5.6c0-2.2,0.8-4.1,2.2-5.6c1.5-1.5,3.4-2.2,5.6-2.2
		c1.2,0,2.2,0.2,3.2,0.7c1,0.5,1.8,1.2,2.4,2v-2.4h1.8v15h-1.8V212.8z M309.7,202.6v-3.3v-3.9h1.9v19.8h-1.9v-2.2
		c-0.7,0.9-1.5,1.5-2.5,2c-1,0.5-2.1,0.7-3.2,0.7c-2.1,0-3.9-0.8-5.4-2.3c-1.5-1.5-2.2-3.4-2.2-5.6c0-2.2,0.7-4,2.2-5.6
		c1.4-1.5,3.3-2.2,5.4-2.2c1.2,0,2.3,0.2,3.3,0.7C308.2,201,309,201.7,309.7,202.6 M387.4,210.5h2v0c0,0.9,0.3,1.7,0.8,2.3
		c0.5,0.6,1.2,0.9,2,0.9c0.7,0,1.4-0.2,1.9-0.7c0.5-0.5,0.7-1.1,0.7-1.8c0-0.7-0.2-1.3-0.6-1.7c-0.4-0.5-1.1-0.9-2.1-1.3
		c-1.7-0.6-2.8-1.2-3.3-1.8c-0.5-0.6-0.7-1.5-0.7-2.5c0-1.2,0.4-2.2,1.3-3c0.9-0.8,1.9-1.2,3.1-1.2c1.3,0,2.3,0.4,3.1,1.1
		c0.8,0.7,1.2,1.7,1.2,3h-2c-0.1-0.7-0.3-1.3-0.7-1.6c-0.4-0.4-1-0.6-1.6-0.6c-0.7,0-1.2,0.2-1.6,0.7c-0.4,0.4-0.6,1-0.6,1.5
		c0,0.4,0.1,0.8,0.3,1.1c0.2,0.3,0.5,0.6,0.9,0.9c0.4,0.2,0.9,0.4,1.6,0.6c0.7,0.2,1.2,0.3,1.4,0.5c0.9,0.4,1.6,0.9,2.1,1.6
		c0.4,0.7,0.7,1.5,0.7,2.5c0,1.3-0.5,2.3-1.3,3.2c-0.9,0.8-2,1.2-3.4,1.2c-1.4,0-2.5-0.5-3.4-1.4C387.9,213.2,387.4,212,387.4,210.5
		 M413.3,212.8c-0.6,0.9-1.4,1.5-2.4,2.1c-1,0.5-2.1,0.7-3.3,0.7c-2.2,0-4-0.8-5.5-2.2c-1.5-1.5-2.2-3.4-2.2-5.6
		c0-2.2,0.8-4.1,2.2-5.6c1.5-1.5,3.4-2.2,5.6-2.2c1.2,0,2.2,0.2,3.2,0.7c1,0.5,1.8,1.2,2.4,2v-2.4h1.8v15h-1.8V212.8z M501.1,209.5
		h1.9c0,1.2,0.4,2.2,1,2.9c0.7,0.7,1.5,1.1,2.6,1.1c1.1,0,2.1-0.4,2.8-1.1c0.7-0.7,1-1.7,1-2.9c0-1.8-1.4-3.1-4.2-4.1
		c-0.2-0.1-0.4-0.1-0.5-0.2c-1.4-0.5-2.5-1.1-3.1-1.9c-0.7-0.7-1-1.8-1-3c0-1.6,0.5-2.9,1.5-3.9c1-1,2.2-1.5,3.8-1.5
		c1.5,0,2.7,0.4,3.6,1.3c0.8,0.9,1.3,2.2,1.4,3.9h-1.8c-0.1-1.1-0.4-1.9-1-2.5c-0.5-0.6-1.3-0.9-2.2-0.9c-1,0-1.8,0.3-2.4,0.9
		c-0.6,0.6-0.9,1.5-0.9,2.5c0,0.5,0.1,0.9,0.3,1.3c0.2,0.4,0.5,0.7,0.9,1c0.4,0.3,1.3,0.6,2.4,1c0.7,0.2,1.2,0.4,1.5,0.5
		c1.3,0.5,2.2,1.1,2.8,1.9c0.6,0.7,0.9,1.8,0.9,3c0,1.9-0.5,3.5-1.5,4.7c-1.1,1.2-2.5,1.8-4.2,1.8c-1.6,0-2.9-0.6-3.9-1.7
		C501.7,212.8,501.1,211.3,501.1,209.5 M572.2,212.8c-0.6,0.9-1.4,1.5-2.4,2.1c-1,0.5-2.1,0.7-3.3,0.7c-2.2,0-4-0.8-5.5-2.2
		c-1.5-1.5-2.2-3.4-2.2-5.6c0-2.2,0.7-4.1,2.2-5.6c1.5-1.5,3.4-2.2,5.6-2.2c1.2,0,2.2,0.2,3.2,0.7c1,0.5,1.8,1.2,2.4,2v-2.4h1.9v15
		h-1.9V212.8z M215.6,195.4h1.9v19.8h-1.9V195.4z M222.1,200.2h1.9v15h-1.9V200.2z M230,215.2v-13h-2.8v-1.9h2.8v-4.8h1.9v4.8h2.8
		v1.9h-2.8v13H230z M237.8,200.2h1.9v15h-1.9V200.2z M350.2,195.4h5.6c1.6,0,2.9,0.2,3.9,0.5c1.1,0.3,2,0.8,2.8,1.5
		c1.1,0.9,2,2.1,2.6,3.5c0.6,1.4,0.9,2.9,0.9,4.4c0,1.7-0.3,3.3-1,4.8c-0.7,1.4-1.7,2.6-2.9,3.5c-0.8,0.6-1.7,1-2.7,1.3
		c-1,0.3-2.5,0.4-4.5,0.4h-4.8V195.4z M421.7,215.2h-2v-15h1.8v1.7c0.5-0.7,1-1.1,1.5-1.5c0.5-0.3,1.2-0.5,1.9-0.5v2.1
		c-1.2,0.1-2,0.5-2.6,1.1c-0.6,0.6-0.8,1.6-0.8,3V215.2z M430.1,215.2h-1.9v-15h1.8v1.7c0.5-0.7,1-1.1,1.5-1.5
		c0.5-0.3,1.2-0.5,1.9-0.5l0,2.1c-1.2,0.1-2.1,0.5-2.6,1.1c-0.5,0.6-0.8,1.6-0.8,3V215.2z M455.1,195.4h1.9v19.8h-1.9V195.4z
		 M461.6,195.4h1.9v19.8h-1.9V195.4z M553.1,200.2h1.9v15h-1.9V200.2z M578.7,195.4h1.9v19.8h-1.9V195.4z M275.4,207.6
		c0-1.6-0.6-3-1.7-4.2c-1.1-1.2-2.5-1.8-3.9-1.8c-1.6,0-3,0.6-4.1,1.8c-1.1,1.2-1.7,2.6-1.7,4.4c0,1.7,0.6,3.1,1.7,4.2
		c1.1,1.1,2.5,1.7,4.1,1.7c1.5,0,2.9-0.6,4-1.8C274.8,210.7,275.4,209.3,275.4,207.6 M309.7,207.9c0-1.7-0.5-3.2-1.7-4.4
		c-1.1-1.2-2.4-1.8-4-1.8c-1.6,0-2.9,0.6-4,1.7c-1.1,1.1-1.7,2.5-1.7,4.2c0,1.8,0.6,3.2,1.7,4.4c1.1,1.2,2.5,1.8,4.1,1.8
		c1.5,0,2.8-0.6,3.9-1.8C309.2,210.8,309.7,209.4,309.7,207.9 M413.3,207.6c0-1.6-0.6-3-1.7-4.2c-1.1-1.2-2.4-1.8-3.9-1.8
		c-1.6,0-3,0.6-4.1,1.8c-1.1,1.2-1.7,2.6-1.7,4.4c0,1.7,0.6,3.1,1.7,4.2c1.1,1.1,2.5,1.7,4,1.7s2.9-0.6,4-1.8
		C412.8,210.7,413.3,209.3,413.3,207.6 M572.2,207.6c0-1.6-0.5-3-1.7-4.2c-1.1-1.2-2.5-1.8-3.9-1.8c-1.6,0-3,0.6-4.1,1.8
		c-1.1,1.2-1.7,2.6-1.7,4.4c0,1.7,0.6,3.1,1.7,4.2c1.1,1.1,2.5,1.7,4,1.7c1.5,0,2.9-0.6,4-1.8C571.7,210.7,572.2,209.3,572.2,207.6
		 M198.4,207.7c0,1.7,0.6,3.1,1.7,4.3c1.1,1.2,2.5,1.8,4.1,1.8c1.6,0,2.9-0.6,4-1.8c1.1-1.2,1.7-2.6,1.7-4.3c0-1.8-0.5-3.2-1.7-4.4
		c-1.1-1.1-2.5-1.7-4.2-1.7c-1.5,0-2.9,0.6-3.9,1.7C199,204.5,198.4,206,198.4,207.7 M437.8,207.7c0,1.7,0.5,3.1,1.6,4.3
		c1.1,1.2,2.5,1.8,4.1,1.8c1.6,0,3-0.6,4.1-1.8c1.1-1.2,1.6-2.6,1.6-4.3c0-1.8-0.6-3.2-1.6-4.4c-1.1-1.1-2.5-1.7-4.2-1.7
		c-1.5,0-2.9,0.6-3.9,1.7C438.4,204.5,437.8,206,437.8,207.7 M469.3,207.7c0,1.7,0.6,3.1,1.6,4.3c1.1,1.2,2.5,1.8,4.1,1.8
		c1.6,0,2.9-0.6,4-1.8c1.1-1.2,1.6-2.6,1.6-4.3c0-1.8-0.6-3.2-1.6-4.4c-1.1-1.1-2.5-1.7-4.2-1.7c-1.5,0-2.9,0.6-3.9,1.7
		C469.9,204.5,469.3,206,469.3,207.7 M517.5,207.7c0,1.7,0.6,3.1,1.6,4.3c1.1,1.2,2.5,1.8,4.1,1.8c1.6,0,3-0.6,4.1-1.8
		c1.1-1.2,1.6-2.6,1.6-4.3c0-1.8-0.5-3.2-1.6-4.4c-1.1-1.1-2.5-1.7-4.2-1.7c-1.5,0-2.8,0.6-3.9,1.7
		C518.1,204.5,517.5,206,517.5,207.7 M352.1,197.3v16.1h4c2.5,0,4.5-0.7,5.8-2.1c1.4-1.4,2-3.4,2-6c0-1.3-0.2-2.5-0.7-3.6
		c-0.5-1.1-1.1-2-2-2.8c-0.6-0.5-1.4-0.9-2.2-1.2c-0.8-0.2-1.9-0.4-3.5-0.4H352.1z M328.7,206.6c-0.4-1.7-1-2.9-2-3.8
		c-1-0.8-2.2-1.2-3.8-1.2c-1.4,0-2.7,0.4-3.7,1.4c-1,0.9-1.6,2.1-1.9,3.6H328.7z M382.5,206.6c-0.4-1.7-1-2.9-2-3.8
		c-1-0.8-2.2-1.2-3.8-1.2c-1.4,0-2.7,0.4-3.7,1.4c-1,0.9-1.6,2.1-1.9,3.6H382.5z M239.7,198.5h-1.9v-3.1h1.9V198.5z M555,198.5h-1.9
		v-3.1h1.9V198.5z M222.7,198.2h-1.2l2.8-4.8h2.1L222.7,198.2z"/>
</g>
</svg>
